<?xml version="1.0" encoding="UTF-8" standalone="no"?>
<!-- Created with Inkscape (http://www.inkscape.org/) -->

<svg
   width="513.29456"
   height="425.30936"
   viewBox="0 0 135.80918 112.52977"
   version="1.1"
   id="svg1"
   xmlns="http://www.w3.org/2000/svg"
   xmlns:svg="http://www.w3.org/2000/svg">
  <defs
     id="defs1" />
  <g
     id="layer1"
     transform="translate(-101.42873,-32.775539)">
    <path
       style="fill:#000000;fill-rule:nonzero;stroke:none;stroke-width:0.264583px;stroke-linecap:butt;stroke-linejoin:miter;stroke-opacity:1"
       d="m 95.985448,101.7718 c 2.664193,-8.422127 9.870822,-32.733713 15.985162,-50.532763 1.87817,-5.467433 3.79213,-10.867524 5.77297,-16.32784 l 2.69441,-7.427323 3.41392,7.256824 c 4.07438,8.660708 8.01778,17.769092 12.75529,28.630105 0.61108,1.400941 1.25508,2.882541 1.92655,4.432305 2.15975,-3.916539 4.46767,-8.021662 6.62639,-11.752125 l 2.3957,-4.139959 2.02864,4.10308 c 4.18692,8.46837 7.84267,16.045326 10.07432,21.015822 2.7339,6.089167 4.51879,11.257945 5.42255,13.509534 -1.35784,-2.010649 -4.63737,-6.386355 -8.14703,-12.063895 -2.35049,-3.802366 -5.61644,-9.382141 -9.28997,-15.799963 -2.17719,4.793174 -4.50973,9.770052 -6.55246,14.024434 l -2.97371,6.193344 -2.90164,-6.351278 c -1.72983,-3.78637 -3.3329,-7.316817 -4.74538,-10.450097 -3.53772,-7.8476 -6.6712,-14.763641 -9.53319,-21.346871 -1.15045,2.858909 -2.31196,5.707712 -3.49389,8.564181 -7.19554,17.390096 -17.882193,40.385404 -21.458632,48.462485 z"
       id="path1"
       transform="translate(38.799933,5.2916667)" />
    <path
       style="fill:#000000;fill-rule:nonzero;stroke:none;stroke-width:0.264583px;stroke-linecap:butt;stroke-linejoin:miter;stroke-opacity:1"
       d="m 70.117029,90.539464 c 0.555387,2.27637 1.53726,5.994637 3.61421,9.684676 1.458455,2.59118 3.373635,5.02873 5.894486,7.08516 0.872865,0.71205 1.799841,1.36307 2.77901,1.94961 1.491625,0.8935 3.205941,1.71096 5.174625,2.39345 2.716685,0.94182 5.799314,1.58603 9.302158,1.87675 6.257342,0.51933 13.256352,-0.13545 20.929552,-1.61932 7.45711,-1.44208 15.20171,-3.60361 22.29306,-5.71614 4.43578,-1.32143 10.12134,-3.08504 13.68412,-4.17577 2.79043,-0.85428 5.43241,-1.65651 8.01464,-2.411258 7.3825,-2.157791 13.60238,-3.721973 19.08281,-4.492633 2.95829,-0.415996 5.61124,-0.58576 8.00053,-0.498104 1.06998,0.03925 2.08498,0.130089 3.0483,0.27301 1.27739,0.189518 2.53261,0.467012 3.74892,0.867406 2.16712,0.713384 4.06527,1.770024 5.72263,3.223149 2.3276,2.04076 3.7322,4.48816 4.52014,6.19609 -0.47377,-1.75163 -1.3725,-4.58356 -3.34107,-7.26609 -1.43414,-1.954266 -3.29164,-3.641133 -5.648,-4.954105 -1.31674,-0.733686 -2.7146,-1.3086 -4.15564,-1.745148 -1.08547,-0.328834 -2.23037,-0.597853 -3.43563,-0.80689 -2.69138,-0.466789 -5.66021,-0.630572 -8.9142,-0.505876 -5.98816,0.229473 -12.73891,1.423476 -20.359,3.345376 -2.66687,0.672625 -5.40448,1.42488 -8.2299,2.243389 -4.40829,1.277057 -8.55753,2.56718 -13.71899,4.144853 -7.05455,2.156321 -14.51374,4.387461 -21.6277,5.995421 -7.31912,1.65434 -13.70588,2.52162 -19.331505,2.42756 -3.130457,-0.0524 -5.84165,-0.40049 -8.227006,-0.97439 -1.729484,-0.41609 -3.249217,-0.9417 -4.59902,-1.52982 -0.886659,-0.38632 -1.748658,-0.81573 -2.586803,-1.29477 -2.421563,-1.38404 -4.524147,-3.1156 -6.363672,-5.199159 -2.650089,-3.001658 -4.343191,-6.292024 -5.271055,-8.516427 z"
       id="path2"
       transform="translate(31.311707,7.3339108)" />
    <text
       xml:space="preserve"
       style="font-style:normal;font-variant:normal;font-weight:bold;font-stretch:normal;font-size:14.1111px;font-family:'Times New Roman';-inkscape-font-specification:'Times New Roman, Bold';font-variant-ligatures:normal;font-variant-caps:normal;font-variant-numeric:normal;font-variant-east-asian:normal;fill:#000000;stroke:none;stroke-width:0.794015;stroke-linecap:round;stroke-linejoin:round;stroke-dasharray:none;stroke-opacity:1;paint-order:stroke fill markers"
       x="133.24756"
       y="142.06003"
       id="text2"><tspan
         id="tspan2"
         style="font-style:normal;font-variant:normal;font-weight:bold;font-stretch:normal;font-size:14.1111px;font-family:'Gill Sans MT';-inkscape-font-specification:'Gill Sans MT, Bold';font-variant-ligatures:normal;font-variant-caps:normal;font-variant-numeric:normal;font-variant-east-asian:normal;stroke:none;stroke-width:0.794015;stroke-linecap:round;stroke-dasharray:none;stroke-opacity:1;paint-order:stroke fill markers"
         x="133.24756"
         y="142.06003">LandScape</tspan><tspan
         style="font-style:normal;font-variant:normal;font-weight:bold;font-stretch:normal;font-size:14.1111px;font-family:'Times New Roman';-inkscape-font-specification:'Times New Roman, Bold';font-variant-ligatures:normal;font-variant-caps:normal;font-variant-numeric:normal;font-variant-east-asian:normal;stroke:none;stroke-width:0.794015;stroke-linecap:round;stroke-dasharray:none;stroke-opacity:1;paint-order:stroke fill markers"
         x="133.24756"
         y="159.81282"
         id="tspan4" /></text>
  </g>
</svg>
