<?xml version="1.0" encoding="UTF-8" standalone="no"?>
<!-- Created with Inkscape (http://www.inkscape.org/) -->

<svg
   width="418.57153"
   height="418.5715"
   viewBox="0 0 110.74705 110.74704"
   version="1.1"
   id="svg1"
   xmlns="http://www.w3.org/2000/svg"
   xmlns:svg="http://www.w3.org/2000/svg">
  <defs
     id="defs1" />
  <g
     id="layer1"
     transform="translate(-113.95981,-39.87648)">
    <path
       id="path21"
       style="fill:#000000;stroke-width:1.02899;stroke-linejoin:round"
       d="m 169.33333,39.87648 c -30.58185,-10e-7 -55.37352,24.791657 -55.37352,55.373517 0,30.581873 24.79167,55.373533 55.37352,55.373523 30.58187,10e-6 55.37353,-24.79165 55.37353,-55.373523 0,-30.58186 -24.79166,-55.373518 -55.37353,-55.373517 z m 0,7.910503 c 26.21303,0 47.46302,21.249994 47.46302,47.463014 0,25.803453 -20.59498,46.782353 -46.24183,47.432123 12.53895,-0.6356 22.51032,-11.0037 22.51032,-23.70061 0,-13.10648 -10.62502,-23.731513 -23.73151,-23.731513 -13.10648,0 -23.7315,-10.62502 -23.7315,-23.73151 0,-12.696902 9.97137,-23.065003 22.51032,-23.700604 0.40709,-0.01031 0.81161,-0.0309 1.22118,-0.0309 z m -3.6104,0.150794 c -5.53706,0.416731 -10.80923,1.782992 -15.65383,3.936093 4.84512,-2.155167 10.11615,-3.519786 15.65383,-3.936093 z m 3.6104,15.67021 a 7.9105031,7.9105031 0 0 0 -7.91049,7.9105 7.9105031,7.9105031 0 0 0 7.91049,7.91051 7.9105031,7.9105031 0 0 0 7.91051,-7.91051 7.9105031,7.9105031 0 0 0 -7.91051,-7.9105 z m 0,47.463023 c 4.36883,0 7.91051,3.54167 7.91051,7.9105 0,4.36883 -3.54168,7.9105 -7.91051,7.91051 -4.36882,-1e-5 -7.91049,-3.54168 -7.91049,-7.91051 0,-4.36883 3.54167,-7.9105 7.91049,-7.9105 z m -19.26423,27.55512 c 4.8446,2.1531 10.11677,3.51936 15.65383,3.9361 -5.53768,-0.41631 -10.80871,-1.78093 -15.65383,-3.9361 z" />
  </g>
</svg>
