<?xml version="1.0" encoding="UTF-8" standalone="no"?>
<!-- Created with Inkscape (http://www.inkscape.org/) -->

<svg
   width="547.55157"
   height="473.47681"
   viewBox="0 0 144.87302 125.27407"
   version="1.1"
   id="svg1"
   xml:space="preserve"
   xmlns="http://www.w3.org/2000/svg"
   xmlns:svg="http://www.w3.org/2000/svg"><defs
     id="defs1" /><g
     id="layer1"
     transform="translate(-729.33272,-217.35048)"><path
       id="path19"
       style="opacity:1;fill:#ffffff;stroke:#ffffff;stroke-width:6.50498;stroke-linecap:round;stroke-linejoin:round;stroke-opacity:1;paint-order:stroke fill markers"
       d="m 814.51849,256.29306 a 4.3270385,4.3270385 0 0 1 -4.3271,4.32702 4.3270385,4.3270385 0 0 1 -4.32707,-4.32702 4.3270385,4.3270385 0 0 1 4.32707,-4.32708 4.3270385,4.3270385 0 0 1 4.3271,4.32708 z m -80.27932,79.77034 0.29238,-57.729 2.49938,-14.77807 7.32233,-16.10916 14.01692,-14.22616 16.63214,-8.68207 17.57361,-2.51058 14.01696,1.67361 10.25104,4.18425 -16.00428,1.98745 -9.62363,6.27627 -7.00864,10.77432 -1.46431,12.55248 3.97497,11.29729 9.30968,10.14663 10.98366,3.66108 9.83255,3.3474 8.57778,10.042 2.61493,14.74918 -4.70716,12.65716 -10.25103,9.41443 -15.5862,3.03348 h -23.22219 l -27.19711,-0.2092 -12.34331,-0.20919 z m 108.25614,-87.65054 6.25959,18.0593 17.98595,0.74503 z m -5.77364,-6.6127 a 1.6539124,1.6539124 0 0 0 -1.09406,0.63472 1.6539124,1.6539124 0 0 0 0.3127,2.31965 l 28.48358,21.7174 H 848.7549 a 1.6539124,1.6539124 0 0 0 -1.65564,1.65553 1.6539124,1.6539124 0 0 0 1.65564,1.65308 h 20.56697 a 1.6540777,1.6540777 0 0 0 1.00136,-2.96918 l -32.37819,-24.68904 a 1.6539124,1.6539124 0 0 0 -1.22337,-0.32258 z M 734.23923,336.0635 a 1.6539124,1.6539124 0 0 0 -1.65313,1.65303 1.6539124,1.6539124 0 0 0 1.65313,1.65552 h 58.0171 a 1.6539124,1.6539124 0 0 0 1.65314,-1.65552 1.6539124,1.6539124 0 0 0 -1.65314,-1.65303 z m 0.29238,-57.7291 a 1.6539124,1.6539124 0 0 0 -1.66045,1.64578 l -0.28593,57.72895 a 1.6539124,1.6539124 0 0 0 1.64578,1.66292 1.6539124,1.6539124 0 0 0 1.66044,-1.64574 l 0.28592,-57.73152 a 1.6539124,1.6539124 0 0 0 -1.64576,-1.66039 z m 57.72411,-57.73143 c -32.77717,0 -59.38456,26.6073 -59.38456,59.38457 a 1.6539124,1.6539124 0 0 0 1.65317,1.65308 1.6539124,1.6539124 0 0 0 1.65304,-1.65308 c 0,-30.98965 25.0889,-56.07599 56.07835,-56.07599 6.0164,6e-5 11.69839,1.19419 17.12945,2.94488 -5.81977,0.24822 -11.56073,2.14507 -16.43094,5.7699 -9.48376,7.05853 -13.86572,19.09423 -11.14207,30.59823 2.68873,11.35608 11.80878,20.03906 23.24118,22.23982 a 1.6539124,1.6539124 0 0 0 0.2214,0.13675 c 12.14628,1.98269 20.98046,12.547 20.78426,24.85264 -0.15204,9.53045 -5.71471,17.79199 -13.87174,21.79798 -2.4805,0.94615 -5.01456,1.78107 -7.65014,2.371 -0.024,10e-4 -0.0296,0.005 -0.0445,0.011 a 1.6539124,1.6539124 0 0 0 -0.024,0.005 c -3.94528,0.87854 -8.01201,1.42356 -12.22352,1.42356 a 1.6539124,1.6539124 0 0 0 -1.65559,1.65309 1.6539124,1.6539124 0 0 0 1.65559,1.65558 c 4.49643,0 8.83734,-0.59726 13.04891,-1.54566 2.87531,-0.41728 5.56963,-1.3074 8.08007,-2.51262 22.31892,-8.54266 38.25324,-30.01715 38.25324,-55.32628 0,-20.25321 -10.19674,-38.10379 -25.69258,-48.82383 -5.3e-4,-3.1e-4 4.4e-4,-0.001 0,-0.001 a 1.6539124,1.6539124 0 0 0 -0.48417,-0.42471 c -0.12077,-0.0676 -0.25114,-0.11263 -0.37365,-0.18077 -9.41143,-6.26682 -20.68692,-9.95283 -32.83251,-9.95283 z m 16.86069,9.51318 c 4.99503,-0.2904 10.0681,0.85623 14.59704,3.4479 14.85618,10.08229 24.61819,27.10058 24.61819,46.42349 0,18.98865 -9.47827,35.6898 -23.90274,45.83252 3.00607,-4.40701 4.84952,-9.64931 4.93974,-15.31249 0.21902,-13.6887 -9.50675,-25.47216 -22.89422,-27.99767 a 1.6539124,1.6539124 0 0 0 -0.40837,-0.19274 c -10.35039,-1.82894 -18.61463,-9.62881 -21.03615,-19.85672 -2.42139,-10.22795 1.46751,-20.90417 9.89906,-27.17971 4.21594,-3.13775 9.15939,-4.87183 14.18695,-5.16438 z m 0.86684,15.81558 c -5.75994,0 -10.46314,4.70551 -10.46314,10.46552 0,5.76005 4.7032,10.46558 10.46314,10.46558 5.75994,0 10.46546,-4.70553 10.46546,-10.46558 0,-5.76001 -4.70552,-10.46552 -10.46546,-10.46552 z m 0,3.30859 c 3.97232,0 7.15693,3.18466 7.15693,7.15693 0,3.97237 -3.18461,7.15697 -7.15693,7.15697 -3.9723,0 -7.15691,-3.18465 -7.15691,-7.15697 0,-3.97227 3.18461,-7.15693 7.15691,-7.15693 z m 32.51143,-0.82746 7.2683,19.17178 h 17.23416 z" /></g></svg>
