<?xml version="1.0" encoding="UTF-8" standalone="no"?>
<!-- Created with Inkscape (http://www.inkscape.org/) -->

<svg
   width="733.97479"
   height="192.58191"
   viewBox="0 0 194.1975 50.953966"
   version="1.1"
   id="svg1"
   xml:space="preserve"
   xmlns="http://www.w3.org/2000/svg"
   xmlns:svg="http://www.w3.org/2000/svg"><defs
     id="defs1" /><g
     id="layer1"
     transform="translate(-732.56253,-220.72087)"><path
       id="path19"
       style="opacity:1;fill:#808080;fill-opacity:1;stroke:#808080;stroke-width:2.64583;stroke-linecap:round;stroke-linejoin:round;stroke-opacity:1;paint-order:stroke fill markers"
       d="m 767.21058,236.56036 a 1.7599777,1.7599777 0 0 1 -1.76,1.75998 1.7599777,1.7599777 0 0 1 -1.76,-1.75998 1.7599777,1.7599777 0 0 1 1.76,-1.75998 1.7599777,1.7599777 0 0 1 1.76,1.75998 z m -32.65277,32.44576 0.11917,-23.48068 1.01658,-6.01083 2.97826,-6.5522 5.70127,-5.78636 6.76494,-3.53136 7.14785,-1.02114 5.7013,0.68075 4.1695,1.70188 -6.5096,0.80838 -3.9143,2.55281 -2.8507,4.38232 -0.5956,5.10561 1.6168,4.59504 3.7866,4.12703 4.4675,1.48912 3.9993,1.36152 3.4889,4.08448 1.0636,5.99909 -1.9146,5.14815 -4.1695,3.82921 -6.3395,1.23386 h -9.44539 l -11.06215,-0.0851 -5.02052,-0.0851 z m 44.03207,-35.65096 2.546,7.34544 7.3156,0.30316 z m -2.3484,-2.68962 a 0.6727115,0.6727115 0 0 0 -0.445,0.25823 0.6727115,0.6727115 0 0 0 0.1272,0.94351 l 11.5854,8.83332 h -6.3732 a 0.6727115,0.6727115 0 0 0 -0.6734,0.67337 0.6727115,0.6727115 0 0 0 0.6734,0.67238 h 8.3654 a 0.67277878,0.67277878 0 0 0 0.4073,-1.2077 l -13.1695,-10.04201 a 0.6727115,0.6727115 0 0 0 -0.4976,-0.1311 z m -41.68365,38.34059 a 0.6727115,0.6727115 0 0 0 -0.67238,0.67238 0.6727115,0.6727115 0 0 0 0.67238,0.67337 h 23.59785 a 0.6727115,0.6727115 0 0 0 0.6724,-0.67337 0.6727115,0.6727115 0 0 0 -0.6724,-0.67238 z m 0.11918,-23.48068 a 0.6727115,0.6727115 0 0 0 -0.67536,0.6694 l -0.1162,23.48068 a 0.6727115,0.6727115 0 0 0 0.6694,0.67635 0.6727115,0.6727115 0 0 0 0.67536,-0.6694 l 0.1162,-23.48167 a 0.6727115,0.6727115 0 0 0 -0.6694,-0.67536 z m 23.47867,-23.48167 c -13.33177,0 -24.15403,10.82225 -24.15403,24.15405 a 0.6727115,0.6727115 0 0 0 0.67238,0.67238 0.6727115,0.6727115 0 0 0 0.67238,-0.67238 c 0,-12.60468 10.20462,-22.8083 22.80927,-22.8083 2.4471,1e-5 4.7582,0.48572 6.9672,1.19777 -2.3671,0.1009 -4.7022,0.8725 -6.6831,2.34688 -3.8574,2.87096 -5.6397,7.76637 -4.5319,12.44549 1.0936,4.61898 4.8031,8.15069 9.4531,9.04585 a 0.6727115,0.6727115 0 0 0 0.09,0.0556 c 4.9404,0.80644 8.5336,5.10336 8.4538,10.10855 -0.062,3.87638 -2.3244,7.2367 -5.6422,8.86609 -1.0089,0.38483 -2.0396,0.72443 -3.1116,0.96437 -0.01,0.001 -0.012,0.003 -0.018,0.004 a 0.6727115,0.6727115 0 0 0 -0.01,0.003 c -1.6047,0.35734 -3.2588,0.57902 -4.9718,0.57902 a 0.6727115,0.6727115 0 0 0 -0.6734,0.67239 0.6727115,0.6727115 0 0 0 0.6734,0.67337 c 1.8289,0 3.5945,-0.24279 5.3075,-0.62868 1.1695,-0.16957 2.2654,-0.53177 3.2865,-1.02198 9.078,-3.47464 15.5591,-12.20914 15.5591,-22.50339 0,-8.23778 -4.1474,-15.49831 -10.4502,-19.85857 -2e-4,-1.2e-4 2e-4,-0.001 0,-0.001 a 0.6727115,0.6727115 0 0 0 -0.1967,-0.17282 c -0.049,-0.0284 -0.1023,-0.0458 -0.1519,-0.0735 -3.828,-2.54896 -8.4142,-4.04818 -13.3543,-4.04819 z m 6.8579,3.86941 c 2.0317,-0.11821 4.0951,0.34824 5.9372,1.40237 6.0426,4.10089 10.0132,11.0229 10.0132,18.88227 0,7.72344 -3.8552,14.51648 -9.7222,18.64192 1.2227,-1.79251 1.9725,-3.92477 2.0092,-6.22821 0.089,-5.56771 -3.8668,-10.36054 -9.312,-11.38776 a 0.6727115,0.6727115 0 0 0 -0.1659,-0.0785 c -4.2099,-0.74388 -7.5713,-3.91641 -8.5562,-8.07651 -0.9849,-4.1601 0.5969,-8.50255 4.0263,-11.05505 1.7148,-1.27625 3.7255,-1.98159 5.7704,-2.10057 z m 0.3526,6.43281 c -2.3428,0 -4.2558,1.91393 -4.2558,4.25675 0,2.34282 1.913,4.25676 4.2558,4.25676 2.3428,0 4.2567,-1.91394 4.2567,-4.25676 0,-2.34282 -1.9139,-4.25676 -4.2567,-4.25675 z m 0,1.34575 c 1.6157,0 2.911,1.2953 2.911,2.911 0,1.61571 -1.2953,2.911 -2.911,2.911 -1.6157,0 -2.911,-1.2953 -2.911,-2.911 0,-1.6157 1.2953,-2.911 2.911,-2.911 z m 13.2237,-0.33659 2.9563,7.79793 h 7.0098 z" /><text
       xml:space="preserve"
       style="font-style:normal;font-variant:normal;font-weight:500;font-stretch:normal;font-size:24.6944px;font-family:Prompt;-inkscape-font-specification:'Prompt, Medium';font-variant-ligatures:normal;font-variant-caps:normal;font-variant-numeric:normal;font-variant-east-asian:normal;letter-spacing:0.79375px;opacity:1;fill:#808080;fill-opacity:1;stroke:none;stroke-width:0.264583;stroke-linecap:round;stroke-linejoin:round;stroke-dasharray:none;paint-order:stroke fill markers"
       x="804.62152"
       y="254.82854"
       id="text19"><tspan
         id="tspan19"
         style="font-style:normal;font-variant:normal;font-weight:500;font-stretch:normal;font-size:24.6944px;font-family:Prompt;-inkscape-font-specification:'Prompt, Medium';font-variant-ligatures:normal;font-variant-caps:normal;font-variant-numeric:normal;font-variant-east-asian:normal;letter-spacing:0.79375px;fill:#808080;fill-opacity:1;stroke:none;stroke-width:0.264583;stroke-dasharray:none"
         x="804.62152"
         y="254.82854">WILLBYTE</tspan></text></g></svg>
