<svg xmlns="http://www.w3.org/2000/svg" width="400" height="340"><linearGradient id="grad1" x1="0%" y1="0%" x2="100%" y2="0%"><stop offset="0%" style="stop-color:#d0fff4;stop-opacity:1" /><stop offset="100%" style="stop-color:#ffffff;stop-opacity:1" /></linearGradient><path fill="url(#grad1)" d="M322.06047240085115,269.89253680208446C312.1139157062762,279.70144824680466,277.73222998111817,275.0538468143287,262.9919012099125,278.8534686683211C248.25157243870683,282.6530905223135,244.0296118943187,287.47477448617377,233.61849977361706,292.6902679260387C223.20738765291543,297.90576136590363,214.8845343025456,304.2085003267357,200.52522848570274,310.14642930751063C186.16592266885988,316.08435828828556,164.7675666668636,329.62219552404366,147.46266487255986,328.31784181068826C130.15776307825612,327.01348809733287,97.45153112294558,317.9971953314805,96.69581771988035,302.32030702737836C95.94010431681512,286.6434187232762,143.01157804085608,252.00817106809387,142.92838445416848,234.25651198607557C142.84519086748088,216.50485290405726,104.13958245667801,212.0790417747583,96.19665619975468,195.81035253526846C88.25372994283136,179.54166329577862,87.41251074917653,151.85396137018495,95.27082691262848,136.6443765491365C103.12914307608042,121.43479172808804,125.97659481824519,107.32531966846278,143.3465531804664,104.55284360897777C160.7165115426876,101.78036754949275,182.69807352379172,118.2606365595411,199.4905770859558,120.0095201922264C216.2830806481199,121.75840382491171,230.4841871925581,111.55939015741674,244.1015745534509,115.04614540508962C257.71896191434365,118.53290065276249,272.6653020606232,129.7658646805553,281.1949012513125,140.93005167826368C289.7245004420018,152.09423867597206,288.3664463432448,168.85294267105056,295.27916969758644,182.03126739133995C302.1918930519281,195.20959211162935,318.20769092681826,205.35645509820924,322.6712413773624,220C327.1347918279065,234.64354490179076,332.0070290954261,260.08362535736427,322.06047240085115,269.89253680208446" stroke="none" stroke-width="3"/></svg>